<?xml version="1.0" encoding="utf-8"?>
<!-- Generator: Adobe Illustrator 24.0.1, SVG Export Plug-In . SVG Version: 6.00 Build 0)  -->
<svg version="1.1" xmlns="http://www.w3.org/2000/svg" xmlns:xlink="http://www.w3.org/1999/xlink" x="0px" y="0px"
	 viewBox="0 0 512 512" style="enable-background:new 0 0 512 512;" xml:space="preserve">
<style type="text/css">
	.st0{display:none;}
	.st1{display:inline;fill:#FFFFF6;}
	.st2{fill:#FCCD05;}
	.st3{fill:#F61E36;}
	.st4{fill:#D1001A;}
	.st5{fill:#E79D07;}
</style>
<g id="background" class="st0">
	<rect class="st1" width="512" height="512"/>
</g>
<g id="vector">
	<path class="st2" d="M68.3,186.8c-0.3-0.3-0.6-0.7-1.1-1.2c0.8,0,1.2,0.4,1.5,0.8C68.5,186.6,68.4,186.7,68.3,186.8z"/>
	<g>
		<path class="st3" d="M396.5,315.7c-3.8-6.9-7.7-13.7-11.5-20.6c-1-1.8-2.1-3.6-3.1-5.4c-2.4-5.6-5.8-10.6-8.6-16
			c-0.5-1-1.1-0.5-1.8-0.1c-3.2,1.7-6.3,3.5-9.6,5.1c-5.1,2.5-10.3,4.9-15.5,7.2c-8.6,3.7-17.3,6.8-26.2,9.3
			c-9,2.5-18.1,4.6-27.4,5.8c-6.3,0.9-12.5,1.7-18.8,1.9c-9.3,0.3-18.6,0.3-27.9-0.7c-5.9-0.6-11.7-1.3-17.5-2.4
			c-10-1.9-20-4.5-29.6-7.8c-12.5-4.4-24.6-9.6-36.1-16c-9.7-5.4-19.2-11.2-28.2-17.6c-8.5-6-16.7-12.3-24.4-19.3
			c-0.4-0.4-0.8-0.8-1.5-0.6c0,0,0,0,0.1,0c0-0.6-0.3-0.9-0.9-0.9c0,0,0,0,0,0c0-0.6-0.3-0.9-0.9-0.9c0,0,0.1,0,0.1,0
			c0-0.3-0.2-0.5-0.5-0.4c0,0,0,0,0,0c0-0.5-0.3-0.6-0.7-0.6c0,0,0,0,0,0c0-0.6-0.3-0.9-0.9-0.9c-11.7-11.4-23.4-22.7-33.3-35.7
			c0.1-0.1,0.3-0.3,0.4-0.4c5.7,3.6,11.3,7.2,17.1,10.7c29.9,18.1,61.5,31.9,95.7,39.5c20.4,4.5,41.1,6.7,62,5.8
			c32.5-1.4,63.4-8.9,92.1-24.5c1.8-1,3.5-2,5.3-3c2.5-1.5,2.5-1.5,1.2-4c-5.9-10.6-11.7-21.2-17.6-31.9c-1.5-2.8-3-5.5-4.8-8.7
			c4.7,1.3,8.9,2.5,13.1,3.8c29.5,8.5,58.9,17.1,88.4,25.6c0.5,0.2,1.1,0.4,1.6,0.6c-0.1,0.6-0.2,1.1-0.3,1.7
			c-2.9,9.9-5.8,19.7-8.7,29.6c-5,17.3-10.1,34.7-15,52.1C400.2,302.6,398,309.1,396.5,315.7z"/>
		<path class="st4" d="M108.7,238.6c0.7-0.3,1.1,0.2,1.5,0.6c7.7,7,15.9,13.3,24.4,19.3c9,6.4,18.5,12.2,28.2,17.6
			c11.6,6.4,23.7,11.6,36.1,16c9.6,3.4,19.5,5.9,29.6,7.8c5.8,1.1,11.6,1.8,17.5,2.4c9.3,1,18.6,1,27.9,0.7
			c6.3-0.2,12.6-1.1,18.8-1.9c9.3-1.3,18.4-3.3,27.4-5.8c8.9-2.5,17.7-5.7,26.2-9.3c5.2-2.2,10.4-4.7,15.5-7.2
			c3.2-1.6,6.4-3.3,9.6-5.1c0.7-0.4,1.3-0.9,1.8,0.1c2.8,5.3,6.2,10.4,8.6,16c-22.2,12-45.6,20.6-70.6,24.8
			c-17.3,2.9-34.8,3.5-52.3,1.7c-40.4-4.2-76.3-20-109.3-43c-14-9.8-27.1-20.8-39.3-32.7C109.8,239.9,109,239.5,108.7,238.6z"/>
		<path class="st4" d="M396.5,315.7c1.5-6.7,3.7-13.2,5.6-19.7c5-17.4,10-34.7,15-52.1c2.9-9.9,5.8-19.8,8.7-29.6
			c0.2-0.5,0.2-1.1,0.3-1.7c4.8,4.2,9.1,9,13.8,13.5c0.8,0.8,0.2,1.5,0,2.2c-8.6,29.5-17.1,59-25.7,88.6c-1.2,4.2-2.5,8.4-3.6,12.5
			C405.8,324.8,401.1,320.3,396.5,315.7z"/>
		<path class="st5" d="M107,236.9c0.6-0.1,0.9,0.3,0.9,0.9C107.4,237.7,107.1,237.3,107,236.9z"/>
		<path class="st5" d="M107.9,237.7c0.6,0,0.9,0.3,0.9,0.9C108.2,238.5,107.9,238.2,107.9,237.7z"/>
		<path class="st5" d="M105,234.9c0.6,0,0.9,0.3,0.9,0.9C105.6,235.5,105.3,235.2,105,234.9z"/>
		<path class="st5" d="M105.8,235.8c0.4,0,0.8,0.1,0.7,0.6C106.2,236.4,106,236.2,105.8,235.8z"/>
		<path class="st5" d="M106.6,236.4c0.3,0,0.5,0.1,0.5,0.4C106.7,236.9,106.6,236.7,106.6,236.4z"/>
	</g>
</g>
</svg>
